<svg width="1301" height="1285" viewBox="0 0 1301 1285" fill="none" xmlns="http://www.w3.org/2000/svg">
<path d="M1179.63 446.04L1160.16 66.892L168.639 26.8516L151.586 373.944L380.006 389.972L597.688 405.22L701.369 412.51L1179.63 446.04Z" fill="#FD8CBF"/>
<path d="M121.404 805.097L161.13 1253.64L1173.96 1184.24L1193.82 786.398L121.404 805.097Z" fill="#36C8ED"/>
<path d="M923.782 484.272L386.824 454.499L0.949219 433.101L73.0278 745.496L1263.56 729.468L1300.95 505.196L923.782 484.272Z" fill="#FFEDA1"/>
<path d="M987.097 519.776C987.097 519.359 987.097 518.942 987.097 518.524V517.801C987.097 516.911 987.097 516.048 987.097 515.018V513.377C987.097 512.848 987.097 512.319 987.097 511.791C987.097 511.262 987.097 510.038 987.097 509.175C987.097 507.672 987.097 506.142 987.097 504.612C987.097 503.86 987.097 503.109 987.097 502.386C987.097 500.178 987.042 497.98 986.93 495.791C986.93 493.231 986.708 490.671 986.569 488.139C986.569 487.805 986.569 487.471 986.569 487.165C986.569 485.412 986.374 483.687 986.235 481.934C986.235 481.628 986.235 481.322 986.235 481.044C986.235 480.765 986.235 479.931 986.235 479.374C986.235 478.818 986.235 479.068 986.235 478.873C986.248 478.716 986.248 478.558 986.235 478.4C986.235 476.842 986.012 475.284 985.873 473.726C985.873 473.169 985.873 472.641 985.873 472.084C985.873 471.528 985.873 471.722 985.873 471.527C985.734 469.747 985.567 467.938 985.372 466.157V465.211V465.016L984.621 457.949C984.621 457.086 984.399 456.224 984.315 455.361C984.232 454.498 984.315 454.164 984.093 453.58C983.87 452.996 983.898 451.855 983.787 450.992L983.453 448.46C983.456 448.414 983.456 448.367 983.453 448.321C983.258 446.902 983.091 445.539 982.896 444.064C982.883 443.916 982.883 443.767 982.896 443.619L982.563 441.365C982.396 440.113 982.229 438.888 982.034 437.664C982.034 437.33 982.034 437.052 982.034 436.718V436.523L981.867 435.466V434.937V434.436L981.7 433.212L981.116 429.4C981.089 429.215 981.089 429.028 981.116 428.843C981.116 428.51 980.977 428.148 980.921 427.786C980.921 426.979 980.671 426.172 980.532 425.337C980.282 423.89 980.031 422.388 979.781 420.913C979.781 420.552 979.781 420.162 979.586 419.8L979.391 418.576C979.391 418.158 979.252 417.713 979.169 417.324C978.974 416.211 978.807 415.126 978.612 414.04L978.028 410.813L977.361 407.195C977.361 406.528 977.11 405.888 976.999 405.22L976.832 404.357V403.968C976.609 402.715 976.359 401.436 976.109 400.183C976.109 399.961 976.109 399.71 975.97 399.46L975.552 397.234C974.968 393.45 974.356 389.638 973.744 385.826C972.548 378.341 971.352 370.883 970.183 363.398C970.171 363.241 970.171 363.083 970.183 362.925C969.599 359.336 969.043 355.746 968.486 352.157C967.93 348.567 967.401 344.922 966.845 341.333V340.86C966.845 340.387 966.706 339.942 966.623 339.469C966.636 339.404 966.636 339.338 966.623 339.274H964.842C964.592 337.883 964.286 336.491 963.98 335.1C963.98 334.655 963.757 334.237 963.618 333.792C963.396 332.846 963.145 331.872 962.867 331.01C962.728 330.537 962.589 330.036 962.422 329.563C962.144 328.589 961.838 327.643 961.504 326.78C961.337 326.335 961.198 325.89 961.059 325.445C960.586 324.109 960.057 322.662 959.529 321.466C959.529 321.076 959.195 320.686 959.028 320.269C958.638 319.323 958.221 318.405 957.804 317.487L956.969 315.706L955.912 313.48C955.606 312.84 955.272 312.2 954.939 311.56C954.605 310.92 954.243 310.224 953.854 309.584C953.464 308.944 953.158 308.221 952.769 307.553C952.379 306.885 952.491 307.052 952.324 306.802C951.35 305.049 950.293 303.296 949.208 301.598C948.958 301.181 948.735 300.764 948.457 300.374C947.928 299.511 947.344 298.649 946.788 297.786L946.12 296.757L944.228 293.974C944.161 293.867 944.087 293.765 944.006 293.668C941.725 290.44 939.36 287.24 936.884 284.124C912.209 244.306 946.454 239.604 946.454 239.604C948.902 239.604 949.236 239.131 949.236 239.131L950.321 238.936H950.738L953.214 238.324H953.631L955.133 237.851L956.163 237.489L956.496 237.35L957.442 236.988L958.166 236.682L958.861 236.376C960.294 235.716 961.688 234.973 963.034 234.15C965.733 232.345 968.208 230.224 970.406 227.834C970.934 227.305 971.463 226.748 971.964 226.192C973.206 224.803 974.332 223.314 975.33 221.74C975.719 221.128 976.081 220.488 976.443 219.876C977.504 217.964 978.371 215.95 979.03 213.865C979.252 213.17 979.447 212.446 979.614 211.723C979.614 211.723 979.614 211.584 979.614 211.528C979.614 211.472 979.614 210.888 979.809 210.554C979.898 210.216 979.963 209.872 980.003 209.524V209.024V208.356C979.99 208.264 979.99 208.17 980.003 208.078C980.017 207.911 980.017 207.743 980.003 207.577C980.003 207.131 980.003 206.714 980.003 206.297C980.003 205.879 980.003 205.462 980.003 205.017C980.003 204.711 980.003 204.377 980.003 204.071C980.017 203.867 980.017 203.662 980.003 203.459C980.003 203.292 980.003 203.153 980.003 203.013V202.735C980.016 202.494 980.016 202.253 980.003 202.012V201.872C980.003 201.678 980.003 201.483 980.003 201.316C979.988 201.14 979.988 200.963 980.003 200.787C980.003 200.787 980.003 200.481 980.003 200.342C980.003 200.203 980.003 199.813 980.003 199.535L979.836 198.589L979.67 197.754C979.67 197.448 979.67 197.114 979.447 196.808C979.28 196.159 979.085 195.491 978.863 194.805C978.696 194.304 978.529 193.803 978.334 193.302C977.792 191.909 977.179 190.543 976.498 189.212C976.423 189.097 976.357 188.976 976.303 188.85C976.137 188.516 975.942 188.21 975.747 187.876L975.469 187.403L975.135 186.875L974.857 186.485L974.634 186.123L974.022 185.205L973.855 184.955L973.494 184.398L972.437 182.784C972.437 182.784 971.908 182.033 971.63 181.644L971.268 181.143L970.628 180.28C970.35 179.89 970.072 179.501 969.766 179.139L969.46 178.778L968.737 177.832L968.264 177.275L967.708 176.579L967.346 176.162C967.179 175.967 967.04 175.744 966.873 175.578C966.706 175.411 966.261 174.854 965.927 174.52L965.76 174.298C965.454 173.964 965.176 173.63 964.842 173.296V173.129L963.98 172.211C963.674 171.877 963.368 171.515 963.034 171.181L962.45 170.569L962.06 170.152C961.743 169.866 961.445 169.56 961.17 169.233L960.781 168.872L959.863 167.953L958.555 166.674L957.721 165.894L956.163 164.392L955.523 163.78L953.687 162.082L953.27 161.721L951.072 159.717L949.319 158.187L948.401 157.352L948.095 157.102C947.511 156.517 946.899 155.989 946.287 155.46L946.12 155.321L939.221 149.171C939.221 149.171 939.221 149.171 939.221 149.032C926.981 137.902 914.49 127.19 901.693 116.783L901.276 116.421C897.845 113.639 894.405 110.856 890.955 108.074L889.203 106.682C885.67 103.9 882.165 101.117 878.604 98.5016L877.853 97.9451C870.267 92.2131 862.571 86.648 854.763 81.2499H854.568L849.561 77.7996C847.614 76.464 845.611 75.0171 843.636 73.8206C834.752 67.9216 825.702 62.2823 816.484 56.9028L816.206 56.7358C811.607 54.0646 806.97 51.449 802.297 48.8891L802.019 48.75C797.345 46.2179 792.616 43.7413 787.831 41.3762L779.513 35.839L777.761 35.0043L772.419 32.5278L771.863 32.2496L766.299 29.7731L765.771 29.5504L761.848 27.8531L761.014 27.4914L755.756 25.3209L755.283 25.1263H755.033C752.807 24.2081 750.582 23.3177 748.328 22.3438H747.967H747.661L743.627 20.8411L739.51 19.1438L737.618 18.476L736.283 18.0031C734.558 17.3909 732.833 16.7787 731.109 16.2222H730.886L724.961 14.3022C721.817 13.3005 718.646 12.3266 715.474 11.5197L710.133 10.017L708.381 9.57191L703.957 8.43115L700.703 7.6241L695.612 6.42764L694.388 6.14945L689.13 5.03637C688.886 4.95437 688.635 4.89841 688.379 4.86943C686.348 4.45205 684.317 4.06254 682.259 3.70081H681.786L680.784 3.53387L678.615 3.14427L677.251 2.92162L673.941 2.39293L671.994 2.11475C670.992 1.9478 670.019 1.78075 669.045 1.66945H668.155L664.51 1.19647L662.257 0.918282H661.729L656.666 0.417447H656.276L651.324 0H650.824L645.872 0.417447H645.482L640.419 0.918282H639.891L637.637 1.19647L633.993 1.66945H633.103C632.129 1.66945 631.156 1.9478 630.154 2.11475L628.207 2.39293L624.896 2.92162L623.533 3.14427L621.363 3.53387L620.362 3.70081H619.889C617.831 4.06254 615.8 4.45205 613.769 4.86943C613.513 4.89841 613.262 4.95437 613.018 5.03637L607.76 6.14945L606.536 6.42764L601.445 7.6241L598.19 8.43115L593.767 9.57191L592.015 10.017L586.673 11.5197C583.502 12.4101 580.331 13.384 577.187 14.3022L571.262 16.2222H571.039C569.315 16.7787 567.59 17.3909 565.865 18.0031L564.53 18.476L562.638 19.1438L558.465 20.702L554.431 22.2045H554.125H553.764C551.511 23.0671 549.285 23.9575 547.06 24.9871H546.809L546.336 25.1819L541.078 27.3523L540.244 27.7141L536.321 29.4114L535.793 29.634L530.229 32.1103L529.673 32.3887L524.332 34.8652L522.579 35.6999L515.457 39.1502C510.672 41.5154 505.943 43.9919 501.27 46.524L500.992 46.6631C496.262 49.223 491.626 51.8386 487.082 54.5098L486.804 54.6768C477.531 60.0378 468.481 65.6769 459.653 71.5944C457.678 72.9022 455.675 74.238 453.727 75.5736L448.72 79.0239H448.525C440.736 84.4406 433.04 90.0056 425.436 95.7191L424.685 96.2754C421.124 99.058 417.619 101.841 414.086 104.456L412.333 105.847C408.884 108.574 405.443 111.357 402.012 114.195L401.595 114.557C388.798 124.963 376.308 135.76 364.068 146.806L363.928 146.945C361.647 149.004 359.338 151.036 357.002 153.095L356.862 153.234C356.25 153.763 355.638 154.291 355.054 154.876L354.748 155.126L353.83 155.961L352.078 157.491L349.88 159.495L349.463 159.856L347.627 161.554L346.987 162.166L345.429 163.668L344.594 164.447L343.287 165.727L342.369 166.646L341.979 167.007C341.704 167.334 341.407 167.64 341.089 167.926L340.7 168.343L340.115 168.955L339.142 169.985L338.307 170.903L338.168 171.07C337.834 171.404 337.556 171.738 337.25 172.072L337.083 172.294C336.749 172.628 336.443 172.99 336.137 173.352C335.831 173.713 335.831 173.741 335.664 173.936L335.303 174.353L334.746 175.049L334.274 175.605L333.55 176.552L333.244 176.913C332.938 177.275 332.66 177.664 332.382 178.054L331.742 178.917L331.38 179.417C331.102 179.807 330.824 180.169 330.574 180.558L329.517 182.172L329.155 182.729L328.988 182.979L328.376 183.897L328.153 184.259L327.875 184.649L327.541 185.177L327.263 185.65C327.068 185.984 326.874 186.29 326.707 186.624C326.653 186.75 326.588 186.871 326.512 186.986C325.831 188.317 325.218 189.682 324.676 191.076C324.481 191.577 324.314 192.078 324.148 192.579C323.981 193.08 323.73 193.942 323.563 194.582C323.563 194.888 323.396 195.222 323.341 195.528L323.174 196.363L323.007 197.309C323.007 197.588 323.007 197.866 323.007 198.116C323.007 198.367 323.007 198.422 323.007 198.561C323.022 198.737 323.022 198.914 323.007 199.09C323.007 199.257 323.007 199.452 323.007 199.646V199.786C322.994 200.027 322.994 200.268 323.007 200.509C323.007 200.509 323.007 200.676 323.007 200.787C323.02 200.936 323.02 201.084 323.007 201.233C322.993 201.436 322.993 201.641 323.007 201.845C323.007 201.845 323.007 202.485 323.007 202.791C323.007 203.236 323.007 203.653 323.007 204.071C323.007 204.488 323.007 204.905 323.007 205.351C322.993 205.517 322.993 205.685 323.007 205.851C323.021 205.944 323.021 206.038 323.007 206.13V206.798V207.298C323.047 207.646 323.113 207.99 323.202 208.328C323.202 208.662 323.202 208.968 323.396 209.302C323.591 209.636 323.396 209.302 323.396 209.497C323.563 210.22 323.758 210.944 323.981 211.639C324.651 213.72 325.518 215.732 326.568 217.65C326.929 218.262 327.291 218.902 327.68 219.514C328.679 221.088 329.805 222.577 331.047 223.966C331.547 224.522 332.076 225.079 332.604 225.608C334.815 227.81 337.269 229.751 339.921 231.395C341.267 232.218 342.66 232.961 344.094 233.621L344.789 233.927L345.512 234.233L346.458 234.595L346.792 234.734L347.821 235.096L349.323 235.569H349.741L352.217 236.181H352.634L353.719 236.376C353.719 236.376 353.914 236.849 356.362 236.849C356.362 236.849 374.889 239.325 374.889 256.466C374.889 262.643 372.469 270.712 365.931 281.258C363.455 284.375 361.063 287.574 358.81 290.802C358.729 290.899 358.654 291.001 358.587 291.108L356.696 293.891L356.028 294.92C355.471 295.783 354.887 296.645 354.359 297.508C354.081 297.898 353.858 298.315 353.608 298.732C352.523 300.43 351.466 302.183 350.464 303.936L350.047 304.687C349.657 305.355 349.323 306.023 348.962 306.718C348.6 307.414 348.239 308.026 347.877 308.694C347.515 309.362 347.209 309.974 346.903 310.614L345.846 312.84L345.012 314.621C344.594 315.567 344.177 316.485 343.788 317.403C343.621 317.821 343.426 318.21 343.287 318.6C342.758 319.907 342.23 321.382 341.757 322.579C341.618 323.024 341.479 323.469 341.312 323.914C340.978 324.86 340.672 325.806 340.394 326.697C340.227 327.17 340.088 327.671 339.949 328.144C339.67 329.118 339.42 330.091 339.198 330.926C339.058 331.371 338.947 331.789 338.836 332.234C338.53 333.625 338.224 335.017 337.973 336.408H337.723C337.71 336.472 337.71 336.538 337.723 336.603C337.723 337.076 337.556 337.521 337.501 337.994V338.467C336.944 342.056 336.388 345.674 335.859 349.291C335.331 352.908 334.747 356.47 334.162 360.059C334.162 360.059 334.162 360.365 334.162 360.532C332.994 368.017 331.798 375.475 330.602 382.96C329.989 386.772 329.377 390.584 328.793 394.368L328.376 396.594C328.376 396.844 328.376 397.095 328.237 397.317C327.987 398.569 327.736 399.85 327.514 401.102V401.491L327.347 402.354C327.347 403.021 327.096 403.662 326.985 404.329L326.317 407.947L325.733 411.174C325.538 412.26 325.372 413.345 325.177 414.458C325.177 414.847 325.01 415.293 324.954 415.71C324.899 416.127 324.815 416.517 324.76 416.934C324.704 417.352 324.62 417.685 324.565 418.047C324.314 419.522 324.064 421.025 323.814 422.471C323.814 423.306 323.535 424.113 323.424 424.92C323.424 425.282 323.285 425.644 323.229 425.977C323.256 426.162 323.256 426.349 323.229 426.534L322.645 430.346L322.478 431.57V432.071V432.6L322.311 433.657V433.852C322.311 434.186 322.311 434.464 322.311 434.798C322.117 436.022 321.95 437.247 321.783 438.499L321.449 440.753C321.463 440.901 321.463 441.05 321.449 441.198C321.254 442.617 321.087 443.98 320.893 445.455C320.89 445.502 320.89 445.548 320.893 445.594L320.559 448.126C320.559 448.989 320.336 449.879 320.253 450.714C320.169 451.549 320.086 451.911 320.03 452.495C319.975 453.079 319.836 454.22 319.724 455.083C319.446 457.42 319.224 459.785 318.973 462.15V462.345V463.291C318.778 465.072 318.612 466.881 318.472 468.661C318.472 468.856 318.472 469.051 318.472 469.218C318.472 469.385 318.473 470.303 318.333 470.86C318.333 472.418 318.083 473.976 317.972 475.534V476.007C317.972 476.202 317.972 476.341 317.972 476.508C317.972 476.675 317.972 477.621 317.972 478.178C317.972 478.734 317.972 478.762 317.972 479.068C317.833 480.821 317.749 482.546 317.638 484.299C317.638 484.605 317.638 484.939 317.638 485.273C317.499 487.805 317.36 490.365 317.276 492.925C317.193 495.485 317.137 497.322 317.109 499.52C317.109 500.243 317.109 500.994 317.109 501.746C317.109 503.276 317.109 504.807 317.109 506.309C317.109 507.172 317.109 508.062 317.109 508.925C317.109 509.787 317.109 509.982 317.109 510.511V512.152C317.109 513.043 317.109 513.905 317.109 514.935V515.658C317.109 516.076 317.109 516.493 317.109 516.911C317.109 519.304 317.109 521.724 317.109 524.145C317.109 531.046 317.332 537.9 317.777 544.708C317.777 545.098 317.777 545.431 317.777 545.821C317.944 548.993 318.194 552.165 318.472 555.337V556.367C318.695 558.788 318.918 561.208 319.168 563.629C319.418 566.05 319.641 567.97 319.891 570.14C319.891 570.446 319.891 570.78 319.891 571.086C320.058 572.505 320.225 573.869 320.42 575.316C320.615 576.763 320.726 577.597 320.865 578.738C321.393 582.439 321.95 586.168 322.562 589.868C322.575 590.109 322.575 590.351 322.562 590.592L323.396 595.489C323.41 595.702 323.41 595.916 323.396 596.129C324.101 600.08 324.852 604.031 325.65 607.983L326.484 612.101C326.707 613.158 326.957 614.243 327.208 615.329C327.458 616.414 327.847 618.334 328.181 619.836C328.181 620.254 328.376 620.671 328.459 621.088L328.626 621.784C328.686 621.966 328.732 622.152 328.765 622.341C329.183 624.066 329.572 625.819 329.989 627.516C330.156 628.323 330.379 629.102 330.574 629.881L330.907 631.384L331.241 632.664C333.096 639.824 335.015 646.929 337 653.978C338.854 660.489 340.811 666.982 342.87 673.456C344.316 677.963 345.791 682.471 347.321 686.923C347.321 687.146 347.46 687.396 347.543 687.619C347.627 687.841 347.794 688.342 347.905 688.704C348.767 691.208 349.602 693.712 350.492 696.217C350.492 696.467 350.687 696.745 350.77 697.024L351.104 697.997C351.855 700.168 352.634 702.338 353.413 704.509L354.081 706.401L354.776 708.348L355.75 711.131C356.862 714.247 358.003 717.364 359.144 720.453C361.258 726.018 363.372 731.805 365.542 737.482C365.709 737.983 365.903 738.511 366.098 739.012L369.631 748.278C371.523 753.203 373.387 758.156 375.195 763.137C375.724 764.556 376.252 765.919 376.808 767.366C376.808 767.589 376.809 767.811 377.031 768.034C378.965 773.802 381.193 779.467 383.708 785.007C394.084 807.88 408.744 828.248 423.21 848.338C427.216 853.903 431.222 859.468 435.144 865.033L435.673 865.784C436.841 867.843 438.01 869.958 439.039 872.073C439.512 873.047 439.957 874.02 440.402 874.994L441.042 876.469L441.71 878.138C441.753 878.291 441.808 878.44 441.877 878.584L442.35 879.975C442.857 881.432 443.275 882.919 443.601 884.427C443.73 884.894 443.832 885.368 443.907 885.846L444.158 887.237C444.158 887.738 444.297 888.239 444.325 888.768C444.351 889.12 444.351 889.473 444.325 889.825C444.325 890.354 444.325 890.882 444.325 891.383C444.415 894.113 443.904 896.83 442.827 899.34C441.75 901.85 440.134 904.092 438.093 905.908C437.287 906.771 436.452 907.605 435.645 908.44C434.838 909.275 434.338 909.776 433.642 910.416C432.446 911.64 431.222 912.781 429.97 913.949L427.188 916.565L424.991 918.541L420.734 922.214C419.983 922.826 419.288 923.438 418.537 924.022C416.061 926.081 413.557 928.085 411.026 930.06L410.247 930.673L404.683 934.902H404.544L394.891 942.137L388.409 946.95C378.026 954.235 368.197 962.28 359.004 971.019C358.226 971.77 357.502 972.522 356.807 973.301C356.111 974.08 356 974.136 355.611 974.581L355.193 975.026L354.832 975.444L354.136 976.223C353.802 976.612 353.469 976.974 353.163 977.391L352.606 978.003L351.938 978.838L351.605 979.228C351.41 979.478 351.215 979.756 350.993 980.007L350.631 980.48C350.214 981.009 349.796 981.593 349.379 982.149L348.489 983.402L347.738 984.459L346.43 986.462C346.152 986.935 345.818 987.408 345.54 987.909C345.262 988.41 344.873 989.022 344.567 989.579C344.261 990.135 343.871 990.775 343.537 991.415L343.064 992.361C342.647 993.168 342.23 993.975 341.84 994.838C337.246 1004.46 335.601 1015.22 337.111 1025.78C338.768 1029.47 340.761 1033 343.064 1036.33C344.872 1039.11 346.875 1041.53 348.962 1044L349.713 1044.9C350.436 1045.76 351.187 1046.59 351.938 1047.46C353.107 1048.76 354.275 1050.04 355.472 1051.32C355.727 1051.57 355.968 1051.83 356.195 1052.1L356.807 1052.71L360.173 1056.25C363.15 1059.31 366.098 1062.29 368.908 1065.26C378.7 1075.61 388.576 1085.94 398.424 1096.23L413.223 1111.7L428.023 1127.15C447.737 1147.76 467.47 1168.37 487.221 1188.97L496.429 1198.55C496.791 1198.96 497.208 1199.35 497.598 1199.77L499.517 1201.77L505.749 1208.17L512.036 1214.52C515.467 1217.95 518.935 1221.33 522.44 1224.65L524.721 1226.82C525.528 1227.57 526.307 1228.29 527.113 1228.99C530.702 1232.3 534.318 1235.55 538.046 1238.73L541.273 1241.51H541.468L547.032 1245.18L547.393 1245.4L549.897 1247.02C551.594 1248.1 553.263 1249.16 554.96 1250.16L555.656 1250.64L558.437 1252.31L560.524 1253.53L561.525 1254.14L562.332 1254.61L567.061 1257.4L567.367 1257.59L570.149 1259.18C572.541 1260.51 574.962 1261.79 577.41 1263.05L579.19 1263.94L583.446 1266.05L584.893 1266.72L585.338 1266.94L588.12 1268.25L589.066 1268.69L591.403 1269.72L593.155 1270.47L594.268 1270.95L596.8 1272.01L597.551 1272.31H597.773C598.19 1272.5 598.617 1272.67 599.053 1272.81L600.694 1273.48C602.085 1274.04 603.476 1274.57 604.923 1275.04L605.924 1275.43L606.953 1275.79L610.125 1276.85C617.512 1279.3 625.059 1281.25 632.714 1282.66C634.911 1283.08 637.081 1283.44 639.307 1283.78C643.535 1284.36 647.791 1284.78 652.02 1285C656.248 1284.78 660.365 1284.36 664.733 1283.78C666.958 1283.44 669.128 1283.08 671.326 1282.66C678.98 1281.25 686.528 1279.3 693.915 1276.85L697.086 1275.79L698.116 1275.43L699.117 1275.04C700.536 1274.57 701.899 1274.04 703.345 1273.48L704.987 1272.81C705.422 1272.67 705.85 1272.5 706.266 1272.31H706.489L707.24 1272.01L709.772 1270.95L710.884 1270.47L712.637 1269.72L714.974 1268.69L715.92 1268.25L718.701 1266.94L719.147 1266.72L720.593 1266.05L724.849 1263.94L726.63 1263.05C729.078 1261.79 731.498 1260.51 733.891 1259.18L736.672 1257.59L736.978 1257.4L741.708 1254.61L742.514 1254.14L743.516 1253.53L745.602 1252.31L748.384 1250.64L749.08 1250.16C750.777 1249.16 752.446 1248.1 754.143 1247.02L756.646 1245.4L757.008 1245.18L762.572 1241.51H762.739L765.993 1238.73C769.721 1235.55 773.338 1232.3 776.926 1228.99C777.733 1228.29 778.512 1227.57 779.319 1226.82L781.6 1224.65C785.105 1221.31 788.573 1217.93 792.004 1214.52L798.291 1208.17L804.522 1201.77L806.442 1199.77C806.831 1199.35 807.249 1198.96 807.61 1198.55L816.818 1188.97L876.017 1127.15L890.816 1111.7L905.616 1096.23C915.464 1085.94 925.339 1075.61 935.132 1065.26C937.914 1062.29 940.89 1059.31 943.867 1056.25L947.233 1052.71L947.845 1052.1C948.071 1051.83 948.313 1051.57 948.568 1051.32C949.764 1050.04 950.933 1048.76 952.101 1047.46C952.852 1046.59 953.603 1045.76 954.327 1044.9L955.078 1044C957.164 1041.53 959.167 1038.97 960.975 1036.33C963.279 1033 965.272 1029.47 966.929 1025.78C968.439 1015.22 966.793 1004.46 962.199 994.838C961.81 993.975 961.393 993.168 960.975 992.361L960.502 991.415C960.169 990.775 959.835 990.191 959.473 989.579C959.111 988.967 958.833 988.466 958.499 987.909C958.166 987.353 957.887 986.935 957.609 986.462C957.331 985.989 956.719 985.127 956.302 984.459L955.551 983.402L954.661 982.149C954.243 981.593 953.826 981.009 953.409 980.48L953.047 980.007C952.824 979.756 952.63 979.478 952.435 979.228L952.101 978.838L951.433 978.003L950.877 977.391C950.571 976.974 950.237 976.612 949.903 976.223L949.208 975.444L948.846 975.026L948.429 974.581C948.039 974.136 947.65 973.718 947.233 973.301C946.815 972.884 945.814 971.77 945.035 971.019C935.842 962.28 926.014 954.235 915.631 946.95L909.149 942.137L899.496 934.902H899.357L893.793 930.673L893.014 930.06C890.482 928.085 887.979 926.081 885.503 924.022C884.752 923.438 884.056 922.826 883.305 922.214L879.049 918.541L876.851 916.565L874.069 913.949C872.818 912.781 871.593 911.64 870.397 910.416C869.702 909.776 869.034 909.108 868.394 908.44C867.755 907.772 866.753 906.771 865.946 905.908C864 904.295 862.394 902.311 861.224 900.07C860.053 897.829 859.342 895.377 859.131 892.858C859.104 892.506 859.104 892.153 859.131 891.801C859.131 891.3 859.131 890.771 859.298 890.27L859.548 888.879C859.623 888.4 859.725 887.927 859.854 887.46C860.179 886.003 860.578 884.563 861.05 883.147L861.523 881.756L861.69 881.31L862.358 879.641C862.58 879.168 862.775 878.667 862.998 878.166C863.415 877.192 863.888 876.219 864.361 875.245C865.557 872.852 866.892 870.487 868.255 868.205C871.875 862.365 875.9 856.786 880.301 851.51C894.794 831.448 909.316 811.163 919.664 788.346V788.012L920.666 785.536C920.861 785.063 921.028 784.617 921.222 784.172C921.417 783.727 921.639 783.087 921.862 782.559C922.224 781.585 922.613 780.639 923.003 779.776L926.23 771.428L926.452 770.844L928.038 766.587C928.706 764.806 929.401 763.053 930.069 761.272C931.265 758.072 932.461 754.9 933.685 751.728L937.218 742.462C937.413 741.961 937.608 741.433 937.774 740.932C939.944 735.367 942.059 729.579 944.173 723.903C945.313 720.814 946.454 717.698 947.567 714.582L948.54 711.799L949.236 709.851L949.903 707.959C950.682 705.789 951.461 703.618 952.212 701.448L952.546 700.474C952.546 700.196 952.741 699.917 952.824 699.667C953.715 697.163 954.549 694.658 955.412 692.154C955.412 691.792 955.634 691.431 955.773 691.069C955.912 690.707 955.912 690.596 955.996 690.373C957.526 685.921 959 681.414 960.447 676.906C962.505 670.451 964.462 663.958 966.317 657.428C968.375 650.361 970.295 643.256 972.075 636.114L972.409 634.834L972.743 633.331C972.937 632.552 973.16 631.773 973.327 630.966C973.744 629.269 974.134 627.516 974.551 625.791C974.584 625.602 974.63 625.416 974.69 625.234L974.857 624.539C974.857 624.121 975.052 623.704 975.135 623.287C975.469 621.784 975.803 620.281 976.109 618.779C976.415 617.276 976.609 616.609 976.832 615.551L977.667 611.433C978.464 607.482 979.215 603.531 979.92 599.579C979.907 599.366 979.907 599.153 979.92 598.939L980.754 594.042C980.741 593.801 980.741 593.56 980.754 593.319C981.366 589.618 981.923 585.889 982.451 582.189C982.451 581.048 982.757 579.907 982.896 578.766C983.036 577.625 983.258 575.984 983.425 574.537C983.425 574.231 983.425 573.897 983.425 573.591C983.675 571.42 983.926 569.25 984.148 567.079C984.371 564.909 984.621 562.238 984.844 559.817V558.788C985.122 555.615 985.372 552.443 985.539 549.271C985.539 548.882 985.539 548.548 985.539 548.158C985.947 541.35 986.17 534.496 986.207 527.595C987.097 524.59 987.097 522.169 987.097 519.776ZM484.829 499.492C432.836 520.166 393.5 467.493 404.85 421.581C416.2 375.669 511.507 377.589 552.15 421.581C564.647 435.562 578.381 448.386 593.183 459.897C594.289 460.719 595.128 461.849 595.595 463.145C596.063 464.441 596.138 465.847 595.812 467.186C595.485 468.524 594.771 469.738 593.76 470.673C592.748 471.609 591.483 472.225 590.123 472.446C564.975 476.647 520.131 485.468 484.829 499.492ZM773.699 746.052C764.14 762.133 749.834 774.857 732.75 782.475C681.452 805.932 629.987 805.848 578.968 781.418C564.148 774.357 551.517 763.415 542.414 749.752C529.534 730.609 532.51 714.721 551.789 701.643C569.537 689.567 589.817 683.918 610.542 680.301C626.037 677.518 641.894 676.711 657.556 675.014C688.852 676.266 719.23 680.913 747.828 693.851C754.571 696.905 760.915 700.774 766.717 705.371C780.737 716.501 782.935 730.609 773.699 746.052ZM829.031 499.492C793.729 485.579 748.885 476.647 723.764 472.446C722.404 472.225 721.139 471.609 720.128 470.673C719.116 469.738 718.402 468.524 718.076 467.186C717.749 465.847 717.824 464.441 718.292 463.145C718.759 461.849 719.599 460.719 720.704 459.897C735.521 448.351 749.263 435.49 761.765 421.47C802.436 377.478 897.771 375.475 909.205 421.47C920.638 467.465 881.052 520.166 829.031 499.492Z" fill="#152844"/>
<path d="M773.7 746.052C764.141 762.133 749.835 774.857 732.751 782.475C681.453 805.932 629.988 805.848 578.969 781.418C564.15 774.357 551.518 763.415 542.415 749.752C529.535 730.609 532.511 714.721 551.79 701.643C569.538 689.566 589.818 683.918 610.543 680.301C626.038 677.518 641.895 676.711 657.557 675.014C688.853 676.266 719.231 680.913 747.829 693.851C754.572 696.905 760.916 700.774 766.718 705.371C780.738 716.501 782.936 730.609 773.7 746.052Z" fill="white"/>
<path d="M829.032 499.492C793.73 485.579 748.886 476.647 723.765 472.446C722.405 472.225 721.14 471.609 720.129 470.673C719.117 469.738 718.403 468.524 718.077 467.186C717.75 465.847 717.825 464.441 718.293 463.145C718.76 461.848 719.599 460.719 720.705 459.896C735.522 448.351 749.264 435.49 761.766 421.47C802.437 377.478 897.772 375.475 909.205 421.47C920.639 467.465 881.053 520.166 829.032 499.492Z" fill="white"/>
<path d="M590.123 472.446C565.086 476.648 520.131 485.468 484.829 499.492C432.836 520.166 393.5 467.493 404.85 421.581C416.2 375.67 511.507 377.59 552.15 421.581C564.648 435.562 578.381 448.386 593.183 459.897C594.289 460.719 595.128 461.849 595.596 463.145C596.063 464.442 596.138 465.847 595.812 467.186C595.485 468.525 594.772 469.738 593.76 470.673C592.748 471.609 591.483 472.225 590.123 472.446Z" fill="white"/>
</svg>
